<?xml version="1.0" encoding="utf-8"?>
<!-- Generator: Adobe Illustrator 25.2.1, SVG Export Plug-In . SVG Version: 6.00 Build 0)  -->
<svg version="1.1" id="Layer_1" xmlns="http://www.w3.org/2000/svg" xmlns:xlink="http://www.w3.org/1999/xlink" x="0px" y="0px"
	 viewBox="0 0 385 241" style="enable-background:new 0 0 385 241;" xml:space="preserve">
<style type="text/css">
	.st0{fill-rule:evenodd;clip-rule:evenodd;fill:#959da5;}
</style>
<g>
	<path class="st0" d="M108.9,118.9c7.4,2.2,13.1,6.1,17.3,11.8c4.2,5.7,6.3,12.6,6.3,20.6c0,12.8-4.9,23.2-14.7,31.1
		c-9.9,8-23.7,12-41.5,12c-19.8,0-34.8-4.6-44.9-13.7c-10.1-9.1-15.2-22.2-15.3-39.2h36.4c0,7.9,1.8,13.5,5.3,16.9
		c3.6,3.4,9.2,5,17,5c6,0,10.6-1.3,13.8-3.8c3.2-2.5,4.9-6,4.9-10.3c0-5.3-1.6-9.2-4.9-11.5c-3.2-2.3-8.2-3.5-15-3.5H63.6v-26.1h11
		c6.2,0,10.8-1.1,13.7-3.2c2.9-2.2,4.4-5.7,4.4-10.5c0-3.9-1.5-7-4.5-9.2c-3-2.2-7.2-3.3-12.7-3.3c-6.2,0-10.8,1.2-13.8,3.6
		c-3,2.4-4.7,6.5-5,12.2H20.3c0.6-15.1,5.5-26.4,14.6-33.8S57.7,52.6,76,52.6c16.4,0,29.3,3.4,38.7,10.2c9.4,6.8,14.1,16,14.1,27.5
		c0,6.1-1.8,11.7-5.3,16.9C119.9,112.4,115,116.3,108.9,118.9z"/>
	<path class="st0" d="M225.4,191.5h-38.2v-27.9h-63.4v-35.9l59.4-72.2h42.2C225.4,125,225.4,142,225.4,191.5L225.4,191.5z
		 M188.5,132.5V91l-34.2,41.5H188.5z"/>
	<polygon class="st0" points="332.8,157.5 332.8,191.5 225.4,191.5 225.4,225.5 366.8,225.5 366.8,21.5 225.4,21.5 225.4,55.5 
		332.8,55.5 332.8,89.5 263.7,89.5 263.7,107.4 326.7,107.4 326.7,139.2 263.7,139.2 263.7,157.5 	"/>
</g>
</svg>
